<?xml version="1.0" encoding="utf-8"?>
<!-- Svg Vector Icons : http://www.onlinewebfonts.com/icon -->
<!DOCTYPE svg PUBLIC "-//W3C//DTD SVG 1.1//EN" "http://www.w3.org/Graphics/SVG/1.1/DTD/svg11.dtd">
<svg version="1.1" xmlns="http://www.w3.org/2000/svg" xmlns:xlink="http://www.w3.org/1999/xlink" x="0px" y="0px" viewBox="0 0 256 256" enable-background="new 0 0 256 256" xml:space="preserve">
<metadata> Svg Vector Icons : http://www.onlinewebfonts.com/icon </metadata>
<g><g><path fill="#000000" d="M181.6,52.9H31.5C19.6,52.9,10,62.5,10,74.4v150.2c0,11.8,9.6,21.5,21.5,21.5h150.2c11.8,0,21.5-9.6,21.5-21.5V74.4C203.1,62.5,193.5,52.9,181.6,52.9 M192.4,224.5c0,5.9-4.8,10.7-10.7,10.7H31.5c-5.9,0-10.7-4.8-10.7-10.7V74.4c0-5.9,4.8-10.7,10.7-10.7h150.2c5.9,0,10.7,4.8,10.7,10.7L192.4,224.5L192.4,224.5z M63.6,128c11.8,0,21.5-9.6,21.5-21.5s-9.6-21.5-21.5-21.5s-21.5,9.6-21.5,21.5S51.8,128,63.6,128 M63.6,95.8c5.9,0,10.7,4.8,10.7,10.7c0,5.9-4.8,10.7-10.7,10.7s-10.7-4.8-10.7-10.7C52.9,100.6,57.7,95.8,63.6,95.8 M170.5,206.5L170.5,206.5c-0.1-0.2-0.2-0.2-0.2-0.4l-32-53.3h0c-0.8-2-2.7-3.4-5-3.4c-1.5,0-2.8,0.6-3.8,1.6l-16.9,16.9L95.4,142c-0.8-1.9-2.7-3.3-4.9-3.3c-1.9,0-3.4,1-4.4,2.5l-0.1,0l-42.9,64.3l0.1,0c-0.6,0.8-1,1.8-1,2.9c0,3,2.4,5.3,5.4,5.3h118c3,0,5.4-2.4,5.4-5.3C170.9,207.8,170.7,207.1,170.5,206.5L170.5,206.5z M57.6,203.1l32.9-49.4l16.4,24.7c0.8,1.9,2.7,3.3,4.9,3.3c1.5,0,2.8-0.6,3.8-1.6l16.6-16.6l23.8,39.7H57.6L57.6,203.1z M224.5,10H74.4c-11.8,0-21.5,9.6-21.5,21.5v5.4c0,3,2.4,5.4,5.4,5.4s5.4-2.4,5.4-5.4v-5.4c0-5.9,4.8-10.7,10.7-10.7h150.2c5.9,0,10.7,4.8,10.7,10.7v150.2c0,5.9-4.8,10.7-10.7,10.7h-5.4c-3,0-5.4,2.4-5.4,5.4s2.4,5.4,5.4,5.4h5.4c11.8,0,21.5-9.6,21.5-21.5V31.5C246,19.6,236.4,10,224.5,10"/></g></g>
</svg>