<?xml version="1.0" encoding="utf-8"?>
<!-- Svg Vector Icons : http://www.onlinewebfonts.com/icon -->
<!DOCTYPE svg PUBLIC "-//W3C//DTD SVG 1.1//EN" "http://www.w3.org/Graphics/SVG/1.1/DTD/svg11.dtd">
<svg version="1.1" xmlns="http://www.w3.org/2000/svg" xmlns:xlink="http://www.w3.org/1999/xlink" x="0px" y="0px" viewBox="0 0 256 256" enable-background="new 0 0 256 256" xml:space="preserve">
<metadata> Svg Vector Icons : http://www.onlinewebfonts.com/icon </metadata>
<g><g><path fill="#000000" d="M69,95.8c14.8,0,26.8-12,26.8-26.8c0-14.8-12-26.8-26.8-26.8S42.2,54.2,42.2,69S54.2,95.8,69,95.8 M69,52.9c8.9,0,16.1,7.2,16.1,16.1S77.9,85.1,69,85.1S52.9,77.9,52.9,69S60.1,52.9,69,52.9 M213.4,206.5L213.4,206.5c-0.3-0.7-0.7-1.4-1.3-1.9l-47-67.8h0c-0.8-2-2.7-3.4-5-3.4c-1.5,0-2.8,0.6-3.8,1.6l-22.3,22.3l-28-41.9c-0.8-1.9-2.7-3.3-4.9-3.3c-1.9,0-3.4,1-4.4,2.4l-0.1,0l-53.7,91.2l0.1,0c-0.6,0.8-1,1.8-1,2.9c0,3,2.4,5.3,5.4,5.3h160.9c3,0,5.4-2.4,5.4-5.3C213.8,207.8,213.7,207.1,213.4,206.5L213.4,206.5z M56.9,203.1l44.6-75.8l26.9,40.4c0.3,0.7,0.7,1.2,1.1,1.7l0,0c1,1,2.3,1.6,3.8,1.6c1.5,0,2.8-0.6,3.8-1.6l22.4-22.4l38.8,56.1H56.9z M224.5,10H31.5C19.6,10,10,19.6,10,31.5v193.1c0,11.8,9.6,21.5,21.5,21.5h193.1c11.8,0,21.5-9.6,21.5-21.5V31.5C246,19.6,236.4,10,224.5,10 M235.3,224.5c0,5.9-4.8,10.7-10.7,10.7H31.5c-5.9,0-10.7-4.8-10.7-10.7V31.5c0-5.9,4.8-10.7,10.7-10.7h193.1c5.9,0,10.7,4.8,10.7,10.7L235.3,224.5L235.3,224.5z"/></g></g>
</svg>