<?xml version="1.0" encoding="utf-8"?>
<!-- Svg Vector Icons : http://www.onlinewebfonts.com/icon -->
<!DOCTYPE svg PUBLIC "-//W3C//DTD SVG 1.1//EN" "http://www.w3.org/Graphics/SVG/1.1/DTD/svg11.dtd">
<svg version="1.1" xmlns="http://www.w3.org/2000/svg" xmlns:xlink="http://www.w3.org/1999/xlink" x="0px" y="0px" viewBox="0 0 256 256" enable-background="new 0 0 256 256" xml:space="preserve">
<metadata> Svg Vector Icons : http://www.onlinewebfonts.com/icon </metadata>
<g><g><path fill="#000000" d="M128,27c55.7,0,101,45.3,101,101c0,55.7-45.3,101-101,101c-55.7,0-101-45.3-101-101C27,72.3,72.3,27,128,27 M128,10C62.9,10,10,62.9,10,128c0,65.1,52.9,118,118,118c65.1,0,118-52.9,118-118C246,62.9,193.1,10,128,10L128,10L128,10z M175.2,114.8l-65.1-42.5c-11.3-7.6-20.8-2.8-20.8,11.3v89.7c0,13.2,9.4,17.9,20.8,11.3l65.1-42.5C186.5,134.6,186.5,122.3,175.2,114.8L175.2,114.8z M161,131.8l-48.1,32.1c-2.8,1.9-5.7,0.9-5.7-2.8V95.9c0-3.8,2.8-4.7,5.7-2.8l48.1,32.1C163.9,127.1,163.9,129.9,161,131.8L161,131.8z"/></g></g>
</svg>